<?xml version="1.0" standalone="no"?>
<!DOCTYPE svg PUBLIC "-//W3C//DTD SVG 20010904//EN"
 "http://www.w3.org/TR/2001/REC-SVG-20010904/DTD/svg10.dtd">
<svg version="1.0" xmlns="http://www.w3.org/2000/svg"
 width="146.000000pt" height="118.000000pt" viewBox="0 0 146.000000 118.000000"
 preserveAspectRatio="xMidYMid meet">
<metadata>
Created by potrace 1.16, written by Peter Selinger 2001-2019
</metadata>
<g transform="translate(0.000000,118.000000) scale(0.100000,-0.100000)"
fill="#000000" stroke="none">
<path d="M0 590 l0 -590 730 0 730 0 0 590 0 590 -730 0 -730 0 0 -590z m465
550 c11 -9 15 -36 15 -102 0 -122 -4 -128 -91 -128 -112 0 -105 14 -114 -232
-8 -230 -1 -341 22 -364 15 -14 144 -21 178 -8 20 8 32 31 91 175 26 63 64
155 84 204 21 50 70 169 109 265 39 96 78 181 88 188 12 8 66 12 184 12 202 0
199 2 199 -104 0 -43 5 -77 12 -84 7 -7 39 -12 75 -12 34 0 74 -5 88 -12 l25
-11 0 -318 c0 -317 0 -318 -22 -333 -14 -10 -44 -16 -78 -16 -85 0 -100 -15
-100 -99 0 -102 -15 -116 -118 -114 -120 2 -122 4 -122 120 0 124 7 133 101
133 104 0 99 -16 99 304 0 242 -2 275 -17 287 -22 19 -174 19 -196 1 -8 -7
-40 -75 -71 -150 -30 -75 -85 -209 -121 -297 -37 -88 -80 -195 -96 -238 -64
-170 -64 -170 -267 -161 -177 7 -182 10 -182 96 0 58 -12 95 -34 110 -6 4 -40
8 -75 8 -106 0 -101 -18 -101 340 0 230 3 310 13 322 8 11 35 17 85 21 45 3
79 10 88 19 9 9 17 43 19 87 6 82 8 89 39 102 28 12 173 4 191 -11z"/>
</g>
</svg>
